<svg width="24" height="24" viewBox="0 0 30 30" fill="none" xmlns="http://www.w3.org/2000/svg">
<g clip-path="url(#clip0_235_73)">
<path d="M4.749 22.5H24.319C24.9213 22.5 25.5147 22.355 26.0491 22.0771C26.5835 21.7992 27.0431 21.3968 27.389 20.9037C27.7349 20.4107 27.9569 19.8415 28.0364 19.2445C28.1158 18.6475 28.0502 18.0401 27.8453 17.4738L24.2803 7.6175C23.6714 5.42713 22.3619 3.49649 20.5519 2.12084C18.7419 0.745187 16.5312 0.000265098 14.2578 1.27164e-09V1.27164e-09C11.8912 -3.69904e-05 9.59531 0.806985 7.74926 2.28782C5.90322 3.76866 4.61736 5.83476 4.104 8.145L1.1665 17.645C0.99355 18.2059 0.954669 18.7995 1.05299 19.3782C1.1513 19.9568 1.38407 20.5043 1.73256 20.9766C2.08106 21.4488 2.53554 21.8327 3.05945 22.0973C3.58336 22.3619 4.16206 22.4998 4.749 22.5V22.5Z" fill="#605E5E"/>
<path d="M8.875 25C9.16189 26.4129 9.92841 27.6831 11.0447 28.5955C12.1609 29.5078 13.5583 30.0063 15 30.0063C16.4417 30.0063 17.8391 29.5078 18.9553 28.5955C20.0716 27.6831 20.8381 26.4129 21.125 25H8.875Z" fill="#605E5E"/>
</g>
<defs>
<clipPath id="clip0_235_73">
<rect width="30" height="30" fill="white"/>
</clipPath>
</defs>
</svg>
