<svg width="30" height="30" viewBox="0 0 48 48" fill="none" xmlns="http://www.w3.org/2000/svg">
<g clip-path="url(#clip0_3_65)">
<path d="M11.6221 15.1745L7.3805 16.418C4.59338 17.2361 2.28127 19.1932 1.01391 21.807C-0.232451 24.3852 -0.334166 27.3693 0.733692 30.0265C0.747976 30.0633 0.766382 30.0981 0.780762 30.1349L4.29839 29.5602C7.61394 28.6966 10.6457 26.9805 13.0925 24.5823C13.9001 23.7917 15.1957 23.8054 15.9864 24.613C16.7771 25.4205 16.7633 26.7162 15.9558 27.5069C12.9443 30.4464 9.20791 32.5359 5.12668 33.5626L2.72973 33.9594C4.10896 36.2008 5.81893 38.2211 7.80174 39.9517L12.0004 38.3933L14.8637 36.9617C17.8153 35.4784 20.3422 33.2703 22.2078 30.544L23.2692 28.9876C23.8795 28.0372 25.1447 27.7614 26.0952 28.3716C27.0456 28.9819 27.3214 30.247 26.7112 31.1976C26.691 31.2291 26.6698 31.2601 26.6479 31.2905L25.5884 32.8469C23.3317 36.1492 20.2724 38.8235 16.6982 40.6185L13.5281 42.1994L11.8041 42.8375C15.959 45.2598 20.6848 46.5307 25.4943 46.5188H27.384C27.8069 46.5185 28.2194 46.3886 28.5661 46.1465C32.8975 43.2027 36.4844 39.2915 39.0435 34.7223L16.7677 12.8512C15.1423 13.8109 13.4168 14.5899 11.6221 15.1745Z" fill="white"/>
<path d="M47.3939 2.08556C46.5854 1.27999 45.2777 1.27999 44.4693 2.08556L34.7262 11.8287L34.0717 11.1886C30.5097 7.70947 24.9617 7.2961 20.9234 10.2089C20.7352 10.3439 20.5491 10.4563 20.3589 10.5873L40.8657 30.7197C41.5182 28.9529 41.9977 27.1269 42.2972 25.2673C42.8119 21.9804 41.7047 18.6476 39.3257 16.3218L37.6895 14.7185L47.398 5.01006C48.2024 4.20057 48.2006 2.89285 47.3939 2.08556Z" fill="white"/>
</g>
<defs>
<clipPath id="clip0_3_65">
<rect width="48" height="48" fill="white"/>
</clipPath>
</defs>
</svg>
