<svg width="18" height="17" viewBox="0 0 18 17" fill="none" xmlns="http://www.w3.org/2000/svg">
<path d="M9.00001 14.275L4.85001 16.775C4.66668 16.8917 4.47501 16.9417 4.27501 16.925C4.07501 16.9083 3.90001 16.8417 3.75001 16.725C3.60001 16.6083 3.48334 16.4627 3.40001 16.288C3.31668 16.1127 3.30001 15.9167 3.35001 15.7L4.45001 10.975L0.775009 7.80001C0.608343 7.65001 0.504343 7.47901 0.463009 7.28701C0.421009 7.09568 0.433343 6.90835 0.500009 6.72501C0.566676 6.54168 0.666676 6.39168 0.800009 6.27501C0.933343 6.15835 1.11668 6.08335 1.35001 6.05001L6.20001 5.62501L8.07501 1.17501C8.15834 0.975013 8.28768 0.825012 8.46301 0.725012C8.63768 0.625012 8.81668 0.575012 9.00001 0.575012C9.18334 0.575012 9.36268 0.625012 9.53801 0.725012C9.71268 0.825012 9.84168 0.975013 9.92501 1.17501L11.8 5.62501L16.65 6.05001C16.8833 6.08335 17.0667 6.15835 17.2 6.27501C17.3333 6.39168 17.4333 6.54168 17.5 6.72501C17.5667 6.90835 17.5793 7.09568 17.538 7.28701C17.496 7.47901 17.3917 7.65001 17.225 7.80001L13.55 10.975L14.65 15.7C14.7 15.9167 14.6833 16.1127 14.6 16.288C14.5167 16.4627 14.4 16.6083 14.25 16.725C14.1 16.8417 13.925 16.9083 13.725 16.925C13.525 16.9417 13.3333 16.8917 13.15 16.775L9.00001 14.275Z" fill="#EBB220"/>
</svg>
