<svg width="30" height="30" viewBox="0 0 48 48" fill="none" xmlns="http://www.w3.org/2000/svg">
<path d="M8 6C8 2.692 10.692 0 14 0H42C45.308 0 48 2.692 48 6V10C48 13.308 45.308 16 42 16H14C10.692 16 8 13.308 8 10C5.794 10 4 11.794 4 14V16C4 18.206 5.794 20 8 20H22C26.412 20 30 23.588 30 28V28.368C32.322 29.196 34 31.396 34 34V42C34 45.308 31.308 48 28 48C24.692 48 22 45.308 22 42V34C22 31.396 23.678 29.196 26 28.368V28C26 25.794 24.206 24 22 24H8C3.588 24 0 20.412 0 16V14C0 9.588 3.588 6 8 6Z" fill="white"/>
</svg>
