<svg width="30" height="30" viewBox="0 0 48 48" fill="none" xmlns="http://www.w3.org/2000/svg">
<path d="M39 48C38.6003 48.0003 38.2096 47.8808 37.8784 47.6569C37.5472 47.433 37.2907 47.115 37.142 46.744L35.454 42.518L31.222 40.736C30.859 40.5756 30.5514 40.3117 30.3379 39.9771C30.1245 39.6426 30.0145 39.2525 30.022 38.8557C30.0295 38.4589 30.154 38.0732 30.38 37.747C30.6059 37.4207 30.9232 37.1685 31.292 37.022L35.468 35.44L37.142 31.256C37.296 30.8903 37.5544 30.5783 37.8849 30.3588C38.2154 30.1394 38.6033 30.0223 39 30.0223C39.3967 30.0223 39.7846 30.1394 40.1151 30.3588C40.4456 30.5783 40.7041 30.8903 40.858 31.256L42.54 35.456L46.74 37.138C47.1064 37.2912 47.4193 37.5494 47.6393 37.88C47.8594 38.2106 47.9768 38.5988 47.9768 38.996C47.9768 39.3931 47.8594 39.7814 47.6393 40.112C47.4193 40.4426 47.1064 40.7007 46.74 40.854L42.54 42.536L40.858 46.736C40.7106 47.1085 40.4546 47.4282 40.1233 47.6536C39.792 47.879 39.4007 47.9996 39 48ZM20 42C19.136 42.0104 18.2918 41.7407 17.5938 41.2312C16.8958 40.7218 16.3816 40 16.128 39.174L12.9 29.08L2.77401 25.692C1.95673 25.4188 1.24744 24.8929 0.748582 24.1903C0.249722 23.4877 -0.0128863 22.6446 -0.00131164 21.783C0.010263 20.9214 0.295421 20.0857 0.812976 19.3967C1.33053 18.7077 2.05369 18.2011 2.87801 17.95L12.924 14.882L16.308 4.77397C16.5596 3.94372 17.0801 3.22065 17.7875 2.71849C18.4949 2.21633 19.3492 1.96357 20.216 1.99997C21.0802 2.00114 21.9208 2.28216 22.6119 2.80097C23.3031 3.31978 23.8076 4.04847 24.05 4.87797L27.114 14.908L37.174 18.128C37.9854 18.4001 38.6909 18.9203 39.1906 19.6151C39.6904 20.3099 39.9593 21.1441 39.9593 22C39.9593 22.8558 39.6904 23.6901 39.1906 24.3848C38.6909 25.0796 37.9854 25.5998 37.174 25.872L27.096 29.096L23.872 39.174C23.6185 40 23.1042 40.7218 22.4062 41.2312C21.7082 41.7407 20.8641 42.0104 20 42ZM41 14C40.5542 14 40.1211 13.851 39.7696 13.5767C39.4181 13.3024 39.1684 12.9185 39.06 12.486L38.346 9.62597L35.48 8.85597C35.0492 8.74024 34.6695 8.48383 34.4012 8.12751C34.1329 7.77118 33.9914 7.3354 33.9993 6.88943C34.0071 6.44346 34.1638 6.0129 34.4444 5.66619C34.725 5.31949 35.1135 5.07654 35.548 4.97597L38.348 4.32597L39.06 1.51397C39.1684 1.08152 39.4182 0.697677 39.7696 0.423411C40.1211 0.149146 40.5542 0.000183105 41 0.000183105C41.4458 0.000183105 41.8789 0.149146 42.2304 0.423411C42.5819 0.697677 42.8316 1.08152 42.94 1.51397L43.648 4.34997L46.484 5.05997C46.9165 5.16836 47.3003 5.41813 47.5746 5.76961C47.8488 6.1211 47.9978 6.55414 47.9978 6.99997C47.9978 7.4458 47.8488 7.87885 47.5746 8.23034C47.3003 8.58182 46.9165 8.83159 46.484 8.93997L43.648 9.64997L42.94 12.486C42.8317 12.9185 42.5819 13.3024 42.2304 13.5767C41.8789 13.851 41.4459 14 41 14Z" fill="white"/>
</svg>
